# xmcd
#
# Track frame offsets:
#	150
#	15006
#	26090
#	40278
#	54258
#	66338
#	80999
#	93246
#	110935
#	125723
#	142224
#	154257
#	167424
#	182593
#	197380
#	208238
#	227433
#	240236
#	258929
#	274042
#	285268
#
# Disc length: 4013 seconds
#
# Revision: 0
# Processed by: cddbd v1.5.2PL0 Copyright (c) Steve Scherf et al.
# Submitted via: EZCDAudioConverter 7.1.0.1
#
DISCID=200fab15
DTITLE=Hott Urban Volume 41 CAN
DYEAR=2018
DGENRE=blues
TTITLE0=Lil Yachty ft. Cardi B and Offset - Who Want The Smoke
TTITLE1=Lil Baby and Gunna - Drip Too Hard
TTITLE2=Bri Steves - Jealousy
TTITLE3=Sheck Wes - Mo Bamba
TTITLE4=DJ Holiday ft. Quavo and 21 Savage - 2 Seater
TTITLE5=G Herbo (aka Lil Herb) ft. Southside - Swervo
TTITLE6=MadeinTYO ft A$AP Ferg - Ned Flanders
TTITLE7=Tamia - Leave It Smokin'
TTITLE8=Ayo and Teo ft. Lil Yachty - AY3
TTITLE9=Jacquees - You
TTITLE10=Philthy Rich ft. TK Kravitz - Exhausted
TTITLE11=DaniLeigh - Lil BeBe
TTITLE12=Jay Rock ft. Jeremih - Tap Out
TTITLE13=Flipp Dinero - Leave Me Alone
TTITLE14=Jazz Cartier ft. Ktoe - Right Now
TTITLE15=Preme - Frostbite
TTITLE16=Coca Vango - Sauce All On Me
TTITLE17=Ne-Yo - Apology
TTITLE18=Yung Bleu ft. Kevin Gates - Ice On My Baby [Remix]
TTITLE19=Russ - The Flute Song
TTITLE20=Vic Mensa ft. G-Eazy - Reverse
EXTD=
EXTT0=
EXTT1=
EXTT2=
EXTT3=
EXTT4=
EXTT5=
EXTT6=
EXTT7=
EXTT8=
EXTT9=
EXTT10=
EXTT11=
EXTT12=
EXTT13=
EXTT14=
EXTT15=
EXTT16=
EXTT17=
EXTT18=
EXTT19=
EXTT20=
PLAYORDER=
